HIERARCHY
ROOT hip
{
  OFFSET 0.0 0.0 0.0
  CHANNELS 6 Xposition Yposition Zposition Zrotation Yrotation Xrotation
  JOINT abdomen
  {
    OFFSET 0.0 20.6881 -0.73152
    CHANNELS 3 Zrotation Xrotation Yrotation
    JOINT chest
    {
      OFFSET 0.0 11.7043 -0.48768
      CHANNELS 3 Zrotation Xrotation Yrotation
      JOINT neck
      {
        OFFSET 0.0 22.1894 -2.19456
        CHANNELS 3 Zrotation Xrotation Yrotation
        JOINT head
        {
          OFFSET -0.24384 7.07133 1.2192
          CHANNELS 3 Zrotation Xrotation Yrotation
          JOINT leftEye
          {
            OFFSET 4.14528 8.04674 8.04672
            CHANNELS 3 Zrotation Xrotation Yrotation
            End Site
            {
              OFFSET 1.0 0.0 0.0
            }
          }
          JOINT rightEye
          {
            OFFSET -3.6576 8.04674 8.04672
            CHANNELS 3 Zrotation Xrotation Yrotation
            End Site
            {
              OFFSET 1.0 0.0 0.0
            }
          }
        }
      }
      JOINT rCollar
      {
        OFFSET -2.68224 19.2634 -4.8768
        CHANNELS 3 Zrotation Xrotation Yrotation
        JOINT rShldr
        {
          OFFSET -8.77824 -1.95073 1.46304
          CHANNELS 3 Zrotation Xrotation Yrotation
          JOINT rForeArm
          {
            OFFSET -28.1742 -1.7115 0.48768
            CHANNELS 3 Zrotation Xrotation Yrotation
            JOINT rHand
            {
              OFFSET -22.5879 0.773209 7.07136
              CHANNELS 3 Zrotation Xrotation Yrotation
              JOINT rThumb1
              {
                OFFSET -1.2192 -0.487915 3.41376
                CHANNELS 3 Zrotation Xrotation Yrotation
                JOINT rThumb2
                {
                  OFFSET -3.37035 -0.52449 3.41376
                  CHANNELS 3 Zrotation Xrotation Yrotation
                  End Site
                  {
                    OFFSET -1.78271 -1.18214 1.43049
                  }
                }
              }
              JOINT rIndex1
              {
                OFFSET -7.75947 0.938293 5.60832
                CHANNELS 3 Zrotation Xrotation Yrotation
                JOINT rIndex2
                {
                  OFFSET -2.54057 -0.884171 1.56538
                  CHANNELS 3 Zrotation Xrotation Yrotation
                  End Site
                  {
                    OFFSET -1.62519 -0.234802 1.16502
                  }
                }
              }
              JOINT rMid1
              {
                OFFSET -8.24714 1.18213 3.41376
                CHANNELS 3 Zrotation Xrotation Yrotation
                JOINT rMid2
                {
                  OFFSET -3.10165 -0.590103 1.0647
                  CHANNELS 3 Zrotation Xrotation Yrotation
                  End Site
                  {
                    OFFSET -2.48547 -0.328903 0.83742
                  }
                }
              }
              JOINT rRing1
              {
                OFFSET -8.82822 0.546677 1.51678
                CHANNELS 3 Zrotation Xrotation Yrotation
                JOINT rRing2
                {
                  OFFSET -2.60934 -0.819778 -0.0198488
                  CHANNELS 3 Zrotation Xrotation Yrotation
                  End Site
                  {
                    OFFSET -2.33842 -0.294052 0.168128
                  }
                }
              }
              JOINT rPinky1
              {
                OFFSET -8.27202 -0.0477905 -0.4584
                CHANNELS 3 Zrotation Xrotation Yrotation
                JOINT rPinky2
                {
                  OFFSET -1.82734 -0.647385 -0.700984
                  CHANNELS 3 Zrotation Xrotation Yrotation
                  End Site
                  {
                    OFFSET -1.69225 -0.51767 -0.607171
                  }
                }
              }
            }
          }
        }
      }
      JOINT lCollar
      {
        OFFSET 2.68224 19.2634 -4.8768
        CHANNELS 3 Zrotation Xrotation Yrotation
        JOINT lShldr
        {
          OFFSET 8.77824 -1.95073 1.46304
          CHANNELS 3 Zrotation Xrotation Yrotation
          JOINT lForeArm
          {
            OFFSET 28.1742 -1.7115 0.48768
            CHANNELS 3 Zrotation Xrotation Yrotation
            JOINT lHand
            {
              OFFSET 22.5879 0.773209 7.07136
              CHANNELS 3 Zrotation Xrotation Yrotation
              JOINT lThumb1
              {
                OFFSET 1.2192 -0.487915 3.41376
                CHANNELS 3 Zrotation Xrotation Yrotation
                JOINT lThumb2
                {
                  OFFSET 3.37035 -0.52449 3.41376
                  CHANNELS 3 Zrotation Xrotation Yrotation
                  End Site
                  {
                    OFFSET 1.78271 -1.18214 1.43049
                  }
                }
              }
              JOINT lIndex1
              {
                OFFSET 7.75947 0.938293 5.60832
                CHANNELS 3 Zrotation Xrotation Yrotation
                JOINT lIndex2
                {
                  OFFSET 2.54057 -0.884171 1.56538
                  CHANNELS 3 Zrotation Xrotation Yrotation
                  End Site
                  {
                    OFFSET 1.62519 -0.234802 1.16502
                  }
                }
              }
              JOINT lMid1
              {
                OFFSET 8.24714 1.18213 3.41376
                CHANNELS 3 Zrotation Xrotation Yrotation
                JOINT lMid2
                {
                  OFFSET 3.10165 -0.590103 1.0647
                  CHANNELS 3 Zrotation Xrotation Yrotation
                  End Site
                  {
                    OFFSET 2.48547 -0.328903 0.83742
                  }
                }
              }
              JOINT lRing1
              {
                OFFSET 8.82822 0.546677 1.51678
                CHANNELS 3 Zrotation Xrotation Yrotation
                JOINT lRing2
                {
                  OFFSET 2.60934 -0.819778 -0.0198488
                  CHANNELS 3 Zrotation Xrotation Yrotation
                  End Site
                  {
                    OFFSET 2.33842 -0.294052 0.168128
                  }
                }
              }
              JOINT lPinky1
              {
                OFFSET 8.27202 -0.0477905 -0.4584
                CHANNELS 3 Zrotation Xrotation Yrotation
                JOINT lPinky2
                {
                  OFFSET 1.82734 -0.647385 -0.700984
                  CHANNELS 3 Zrotation Xrotation Yrotation
                  End Site
                  {
                    OFFSET 1.69225 -0.51767 -0.607171
                  }
                }
              }
            }
          }
        }
      }
    }
  }
  JOINT rButtock
  {
    OFFSET -8.77824 4.35084 1.2192
    CHANNELS 3 Zrotation Xrotation Yrotation
    JOINT rThigh
    {
      OFFSET 0.0 -1.70687 -2.19456
      CHANNELS 3 Zrotation Xrotation Yrotation
      JOINT rShin
      {
        OFFSET 0.0 -36.8199 0.73152
        CHANNELS 3 Zrotation Xrotation Yrotation
        JOINT rFoot
        {
          OFFSET 0.73152 -45.1104 -5.12064
          CHANNELS 3 Zrotation Xrotation Yrotation
          End Site
          {
            OFFSET -1.1221 -3.69964 12.103
          }
        }
      }
    }
  }
  JOINT lButtock
  {
    OFFSET 8.77824 4.35084 1.2192
    CHANNELS 3 Zrotation Xrotation Yrotation
    JOINT lThigh
    {
      OFFSET 0.0 -1.70687 -2.19456
      CHANNELS 3 Zrotation Xrotation Yrotation
      JOINT lShin
      {
        OFFSET 0.0 -36.8199 0.73152
        CHANNELS 3 Zrotation Xrotation Yrotation
        JOINT lFoot
        {
          OFFSET -0.73152 -45.1104 -5.12064
          CHANNELS 3 Zrotation Xrotation Yrotation
          End Site
          {
            OFFSET 1.1221 -3.69964 12.103
          }
        }
      }
    }
  }
}
MOTION
Frames: 9
Frame Time: 0.00833333
1.1358400000000002 85.111 19.4929 -2.1514 6.1109 1.437 8.38454 12.648 1.02021 3.49538 -2.3034 0.603307 1.5483 -4.92584 -0.164313 -11.244 16.5108 0.823008 -0.0 0.0 0.0 -0.0 0.0 0.0 0.0 0.0 0.0 0.0 0.0 0.0 0.0 0.0 0.0 0.000104259 -0.00638103 -0.000896778 4.62668e-10 6.05528e-10 7.36517e-10 7.99803e-10 1.04925e-09 1.27229e-09 4.62674e-10 6.05528e-10 7.36504e-10 7.73091 5.47488 0.417314 4.62668e-10 6.05528e-10 7.36516e-10 2.90554 0.965183 0.102902 4.62677e-10 6.05527e-10 7.36513e-10 10.2786 0.731801 0.0259123 4.62667e-10 6.0553e-10 7.3652e-10 2.22167 -0.733487 -0.20892 0.0 0.0 0.0 0.0 0.0 0.0 0.0 0.0 0.0 0.000108161 0.299148 -0.0420428 6.56574e-10 5.58439e-10 9.6389e-10 1.13608e-09 9.65502e-10 1.66465e-09 6.56568e-10 5.5844e-10 9.639e-10 -7.73091 5.47488 -0.417314 6.56574e-10 5.5844e-10 9.63888e-10 -2.90554 0.965183 -0.102902 6.56568e-10 5.58441e-10 9.63895e-10 -10.2786 0.731801 -0.0259123 6.56578e-10 5.58443e-10 9.63891e-10 -2.22167 -0.733487 0.20892 -2.03217e-16 0.0 -3.88251e-19 3.80785 -1.16954 -2.79642 -0.0786599 19.9927 0.350875 -4.18951 -6.01586 -21.1264 2.03217e-16 0.0 3.88251e-19 9.47204 -31.8623 1.71259 0.151354 27.151 -0.287719 1.58844 -1.55346 10.4258
1.2503300000000002 85.1285 19.891099999999998 -2.1795 5.9067 1.3769 8.41659 12.6623 1.11708 3.46808 -2.27919 0.629538 1.56128 -4.92406 -0.146363 -11.3032 16.4654 0.856991 -0.0 0.0 0.0 -0.0 0.0 0.0 0.0 0.0 0.0 0.0 0.0 0.0 0.0 0.0 0.0 3.279e-05 0.164418 0.0231074 1.85835e-09 -5.17695e-11 9.32419e-10 3.21427e-09 -8.95261e-11 1.60815e-09 1.85835e-09 -5.17656e-11 9.32406e-10 7.73091 5.47488 0.417314 1.85835e-09 -5.17671e-11 9.32418e-10 2.90554 0.965183 0.102902 1.85836e-09 -5.17678e-11 9.32415e-10 10.2786 0.731801 0.0259123 1.85835e-09 -5.17668e-11 9.32422e-10 2.22167 -0.733487 -0.20892 0.0 0.0 0.0 0.0 0.0 0.0 0.0 0.0 0.0 7.8016e-05 0.253314 -0.0356011 1.41278e-09 1.08053e-10 1.08885e-09 2.44299e-09 1.86446e-10 1.87958e-09 1.41277e-09 1.08052e-10 1.08886e-09 -7.73091 5.47488 -0.417314 1.41278e-09 1.08052e-10 1.08886e-09 -2.90554 0.965183 -0.102902 1.41278e-09 1.08054e-10 1.08886e-09 -10.2786 0.731801 -0.0259123 1.41279e-09 1.08056e-10 1.08886e-09 -2.22167 -0.733487 0.20892 -2.03217e-16 0.0 -3.88251e-19 3.7226 -0.764111 -2.73974 -0.0790503 19.814 0.341886 -4.11883 -5.9269 -20.9549 2.03217e-16 0.0 3.88251e-19 9.44745 -31.7895 1.30679 0.144199 26.5056 -0.269183 1.58157 -1.42203 10.7062
1.37044 85.1433 20.2931 -2.1985 5.7263 1.3142 8.44703 12.6698 1.202 3.44033 -2.2577 0.652306 1.57339 -4.91729 -0.127268 -11.3413 16.4364 0.892434 -0.0 0.0 0.0 -0.0 0.0 0.0 0.0 0.0 0.0 0.0 0.0 0.0 0.0 0.0 0.0 -9.00348e-05 0.270937 0.038078 2.56647e-09 -4.49206e-10 1.08506e-09 4.43951e-09 -7.78021e-10 1.87076e-09 2.56648e-09 -4.49199e-10 1.08504e-09 7.73091 5.47488 0.417314 2.56647e-09 -4.49202e-10 1.08506e-09 2.90554 0.965183 0.102902 2.56648e-09 -4.49202e-10 1.08505e-09 10.2786 0.731801 0.0259123 2.56647e-09 -4.49202e-10 1.08506e-09 2.22167 -0.733487 -0.20892 0.0 0.0 0.0 0.0 0.0 0.0 0.0 0.0 0.0 5.38999e-05 0.20964 -0.0294631 1.72557e-09 -2.06838e-10 1.16863e-09 2.98348e-09 -3.58496e-10 2.01733e-09 1.72555e-09 -2.06839e-10 1.16863e-09 -7.73091 5.47488 -0.417314 1.72557e-09 -2.06839e-10 1.16863e-09 -2.90554 0.965183 -0.102902 1.72556e-09 -2.06838e-10 1.16864e-09 -10.2786 0.731801 -0.0259123 1.72557e-09 -2.06835e-10 1.16863e-09 -2.22167 -0.733487 0.20892 -2.03217e-16 0.0 -3.88251e-19 3.64399 -0.358162 -2.67301 -0.0793403 19.6398 0.333508 -4.05519 -5.84571 -20.8014 2.03217e-16 0.0 3.88251e-19 9.43895 -31.7117 0.959931 0.13785 25.9119 -0.252124 1.57309 -1.30374 10.9537
1.4929100000000002 85.1549 20.695899999999998 -2.2207 5.5648 1.2528 8.47891 12.6705 1.27061 3.41114 -2.23942 0.670466 1.58234 -4.90247 -0.106007 -11.3508 16.4296 0.931823 -0.0 0.0 0.0 -0.0 0.0 0.0 0.0 0.0 0.0 0.0 0.0 0.0 0.0 0.0 0.0 -0.000120544 0.280636 0.0394411 2.2426e-09 -4.75843e-10 1.22094e-09 3.87986e-09 -8.23957e-10 2.10682e-09 2.2426e-09 -4.75837e-10 1.22093e-09 7.73091 5.47488 0.417314 2.2426e-09 -4.75839e-10 1.22094e-09 2.90554 0.965183 0.102902 2.2426e-09 -4.75839e-10 1.22094e-09 10.2786 0.731801 0.0259123 2.24259e-09 -4.75839e-10 1.22094e-09 2.22167 -0.733487 -0.20892 0.0 0.0 0.0 0.0 0.0 0.0 0.0 0.0 0.0 2.96593e-05 0.164029 -0.0230529 1.34315e-09 -3.51772e-10 1.21189e-09 2.32235e-09 -6.10018e-10 2.09355e-09 1.34314e-09 -3.51774e-10 1.2119e-09 -7.73091 5.47488 -0.417314 1.34315e-09 -3.51774e-10 1.21189e-09 -2.90554 0.965183 -0.102902 1.34315e-09 -3.51773e-10 1.2119e-09 -10.2786 0.731801 -0.0259123 1.34316e-09 -3.51771e-10 1.21189e-09 -2.22167 -0.733487 0.20892 -2.03217e-16 0.0 -3.88251e-19 3.57307 0.0490627 -2.59634 -0.0795052 19.4707 0.325839 -4.00002 -5.77589 -20.668 2.03217e-16 0.0 3.88251e-19 9.4497 -31.6307 0.678605 0.132205 25.3739 -0.236546 1.56246 -1.20046 11.1559
1.61312 85.1638 21.101599999999998 -2.2558 5.4064 1.1893 8.51106 12.6646 1.32608 3.38051 -2.22327 0.68485 1.59111 -4.88231 -0.0823802 -11.3424 16.4346 0.974801 -0.0 0.0 0.0 -0.0 0.0 0.0 0.0 0.0 0.0 0.0 0.0 0.0 0.0 0.0 0.0 -7.93195e-05 0.229792 0.0322953 1.27499e-09 -3.01774e-10 1.34247e-09 2.20691e-09 -5.2206e-10 2.31956e-09 1.27499e-09 -3.01771e-10 1.34246e-09 7.73091 5.47488 0.417314 1.27499e-09 -3.0177e-10 1.34247e-09 2.90554 0.965183 0.102902 1.27499e-09 -3.0177e-10 1.34247e-09 10.2786 0.731801 0.0259123 1.27498e-09 -3.01769e-10 1.34247e-09 2.22167 -0.733487 -0.20892 0.0 0.0 0.0 0.0 0.0 0.0 0.0 0.0 0.0 9.82662e-06 0.1126 -0.0158249 4.92042e-10 -4.23085e-10 1.20954e-09 8.51032e-10 -7.34578e-10 2.09198e-09 4.9203e-10 -4.23087e-10 1.20954e-09 -7.73091 5.47488 -0.417314 4.92041e-10 -4.23086e-10 1.20954e-09 -2.90554 0.965183 -0.102902 4.92038e-10 -4.23087e-10 1.20954e-09 -10.2786 0.731801 -0.0259123 4.92047e-10 -4.23086e-10 1.20954e-09 -2.22167 -0.733487 0.20892 -2.03217e-16 0.0 -3.88251e-19 3.50536 0.456349 -2.50918 -0.0795546 19.3092 0.318806 -3.95122 -5.71544 -20.5479 2.03217e-16 0.0 3.88251e-19 9.47582 -31.5434 0.446603 0.127077 24.8878 -0.222249 1.55066 -1.10914 11.3272
1.7327500000000002 85.1695 21.5081 -2.2988 5.2632 1.1277 8.53766 12.6519 1.37581 3.35073 -2.2089 0.697408 1.60262 -4.86165 -0.058839 -11.3249 16.4466 1.01607 -0.0 0.0 0.0 -0.0 0.0 0.0 0.0 0.0 0.0 0.0 0.0 0.0 0.0 0.0 0.0 -3.59103e-05 0.164415 0.0231071 1.4745e-10 -4.90393e-11 1.38819e-09 2.57231e-10 -8.39005e-11 2.40149e-09 1.47455e-10 -4.9039e-11 1.38818e-09 7.73091 5.47488 0.417314 1.4745e-10 -4.90361e-11 1.38819e-09 2.90554 0.965183 0.102902 1.47459e-10 -4.9036e-11 1.38819e-09 10.2786 0.731801 0.0259123 1.47442e-10 -4.90336e-11 1.38819e-09 2.22167 -0.733487 -0.20892 0.0 0.0 0.0 0.0 0.0 0.0 0.0 0.0 0.0 1.61157e-06 0.0674798 -0.00948367 -4.31159e-10 -4.26061e-10 1.14887e-09 -7.44881e-10 -7.40774e-10 1.98959e-09 -4.3117e-10 -4.26062e-10 1.14887e-09 -7.73091 5.47488 -0.417314 -4.31161e-10 -4.26062e-10 1.14887e-09 -2.90554 0.965183 -0.102902 -4.31164e-10 -4.26063e-10 1.14887e-09 -10.2786 0.731801 -0.0259123 -4.31153e-10 -4.26065e-10 1.14886e-09 -2.22167 -0.733487 0.20892 -2.03217e-16 0.0 -3.88251e-19 3.44094 0.862933 -2.41163 -0.0795053 19.1521 0.312227 -3.90657 -5.65801 -20.4413 2.03217e-16 0.0 3.88251e-19 9.51231 -31.4494 0.260872 0.122464 24.4471 -0.209161 1.53955 -1.02766 11.4842
1.8563100000000001 85.1716 21.9165 -2.3316 5.1257 1.074 8.55287 12.6327 1.42722 3.32406 -2.19599 0.710093 1.6198 -4.8453 -0.0378352 -11.3072 16.4609 1.05032 -0.0 0.0 0.0 -0.0 0.0 0.0 0.0 0.0 0.0 0.0 0.0 0.0 0.0 0.0 0.0 -2.08923e-05 0.130517 0.018343 -6.56203e-10 1.60322e-10 1.29666e-09 -1.13261e-09 2.78951e-10 2.24514e-09 -6.56198e-10 1.60321e-10 1.29665e-09 7.73091 5.47488 0.417314 -6.56203e-10 1.60325e-10 1.29666e-09 2.90554 0.965183 0.102902 -6.56193e-10 1.60325e-10 1.29666e-09 10.2786 0.731801 0.0259123 -6.56211e-10 1.60328e-10 1.29666e-09 2.22167 -0.733487 -0.20892 0.0 0.0 0.0 0.0 0.0 0.0 0.0 0.0 0.0 2.04136e-06 0.040799 -0.00573393 -1.02984e-09 -3.65986e-10 1.01717e-09 -1.77978e-09 -6.37205e-10 1.76331e-09 -1.02985e-09 -3.65987e-10 1.01718e-09 -7.73091 5.47488 -0.417314 -1.02984e-09 -3.65987e-10 1.01718e-09 -2.90554 0.965183 -0.102902 -1.02985e-09 -3.65989e-10 1.01717e-09 -10.2786 0.731801 -0.0259123 -1.02983e-09 -3.65991e-10 1.01716e-09 -2.22167 -0.733487 0.20892 -2.03217e-16 0.0 -3.88251e-19 3.37991 1.26805 -2.30379 -0.0793781 18.9965 0.305925 -3.86396 -5.59725 -20.3482 2.03217e-16 0.0 3.88251e-19 9.55417 -31.3483 0.118358 0.11838 24.0455 -0.19722 1.53081 -0.953905 11.6439
1.9784800000000002 85.1596 22.327799999999996 -2.3693 4.9891 1.024 8.55075 12.6059 1.48105 3.30224 -2.18423 0.722949 1.64158 -4.83196 -0.0215171 -11.2869 16.4793 1.07356 -0.0 0.0 0.0 -0.0 0.0 0.0 0.0 0.0 0.0 0.0 0.0 0.0 0.0 0.0 0.0 -2.44747e-05 0.140962 0.019811 -1.03311e-09 3.36579e-10 9.72226e-10 -1.78489e-09 5.84194e-10 1.68476e-09 -1.0331e-09 3.36578e-10 9.72219e-10 7.73091 5.47488 0.417314 -1.03311e-09 3.36582e-10 9.72225e-10 2.90554 0.965183 0.102902 -1.0331e-09 3.36583e-10 9.72224e-10 10.2786 0.731801 0.0259123 -1.03311e-09 3.36585e-10 9.7223e-10 2.22167 -0.733487 -0.20892 0.0 0.0 0.0 0.0 0.0 0.0 0.0 0.0 0.0 3.70396e-06 0.0431641 -0.00606632 -1.17023e-09 -1.86237e-10 7.59934e-10 -2.02238e-09 -3.25518e-10 1.31835e-09 -1.17024e-09 -1.86236e-10 7.5994e-10 -7.73091 5.47488 -0.417314 -1.17023e-09 -1.86236e-10 7.59936e-10 -2.90554 0.965183 -0.102902 -1.17023e-09 -1.86238e-10 7.59936e-10 -10.2786 0.731801 -0.0259123 -1.17022e-09 -1.8624e-10 7.59927e-10 -2.22167 -0.733487 0.20892 -2.03217e-16 0.0 -3.88251e-19 3.31933 1.67252 -2.18321 -0.0791378 18.842 0.299969 -3.82442 -5.53227 -20.2756 2.03217e-16 0.0 3.88251e-19 9.59875 -31.2411 0.029936 0.11481 23.6877 -0.186546 1.52354 -0.887205 11.7953
2.10246 85.1428 22.7412 -2.4067 4.8627 0.9779 8.53591 12.5719 1.53375 3.28368 -2.17388 0.735096 1.667 -4.81993 -0.00807857 -11.2609 16.5034 1.08949 -0.0 0.0 0.0 -0.0 0.0 0.0 0.0 0.0 0.0 0.0 0.0 0.0 0.0 0.0 0.0 -3.54892e-05 0.171013 0.0240344 -1.23258e-09 5.30549e-10 4.74087e-10 -2.13064e-09 9.1996e-10 8.23383e-10 -1.23257e-09 5.30548e-10 4.74079e-10 7.73091 5.47488 0.417314 -1.23258e-09 5.30552e-10 4.74085e-10 2.90554 0.965183 0.102902 -1.23257e-09 5.30553e-10 4.74085e-10 10.2786 0.731801 0.0259123 -1.23258e-09 5.30555e-10 4.74092e-10 2.22167 -0.733487 -0.20892 0.0 0.0 0.0 0.0 0.0 0.0 0.0 0.0 0.0 5.63155e-06 0.0656486 -0.00922631 -1.07318e-09 9.66627e-11 4.0097e-10 -1.85447e-09 1.65325e-10 6.96552e-10 -1.07319e-09 9.66648e-11 4.00977e-10 -7.73091 5.47488 -0.417314 -1.07319e-09 9.66644e-11 4.0097e-10 -2.90554 0.965183 -0.102902 -1.07319e-09 9.66631e-11 4.00975e-10 -10.2786 0.731801 -0.0259123 -1.07318e-09 9.66621e-11 4.00969e-10 -2.22167 -0.733487 0.20892 -2.03217e-16 0.0 -3.88251e-19 3.25971 2.07641 -2.05061 -0.0787794 18.6899 0.294414 -3.78845 -5.46625 -20.221 2.03217e-16 0.0 3.88251e-19 9.64866 -31.128 -0.00690926 0.111654 23.3749 -0.177076 1.51748 -0.828691 11.9345
